<svg xmlns="http://www.w3.org/2000/svg" viewBox="0 0 48 48"><title>book 08</title><g class="nc-icon-wrapper" fill="#033152"><path data-color="color-2" d="M46,9h-2v23c0,1.269-0.804,2.406-2.001,2.829l-17,6C24.679,40.942,24.343,41,24,41 s-0.679-0.058-1.001-0.172l-16.998-6C4.804,34.406,4,33.269,4,32V9H2c-0.553,0-1,0.448-1,1v34c0,0.552,0.447,1,1,1h44 c0.553,0,1-0.448,1-1V10C47,9.448,46.553,9,46,9z"/> <path fill="#033152" d="M23,8.587L7.333,3.057c-0.306-0.109-0.645-0.062-0.91,0.126C6.157,3.371,6,3.675,6,4v28 c0,0.424,0.268,0.802,0.667,0.943L23,38.707V8.587z"/> <path fill="#033152" d="M41.577,3.184c-0.265-0.188-0.605-0.236-0.91-0.126L25,8.587v30.121l16.333-5.765 C41.732,32.802,42,32.424,42,32V4C42,3.675,41.843,3.371,41.577,3.184z"/></g></svg>